<svg width="80" height="32" viewBox="0 0 80 32" fill="none" xmlns="http://www.w3.org/2000/svg">
<path d="M21.3334 27.6667C21.068 27.6679 20.8132 27.5622 20.6267 27.3733L9.96006 16.7067C9.57012 16.3162 9.57012 15.6838 9.96006 15.2933L20.6267 4.62667C21.0207 4.25952 21.6347 4.27035 22.0156 4.65117C22.3964 5.03199 22.4072 5.64599 22.0401 6.04L12.0801 16L22.0401 25.96C22.43 26.3504 22.43 26.9829 22.0401 27.3733C21.8535 27.5622 21.5988 27.6679 21.3334 27.6667Z" fill="black"/>
<path d="M58.6666 4.33333C58.932 4.33208 59.1868 4.43782 59.3733 4.62667L70.0399 15.2933C70.4299 15.6838 70.4299 16.3162 70.0399 16.7067L59.3733 27.3733C58.9793 27.7405 58.3653 27.7296 57.9844 27.3488C57.6036 26.968 57.5928 26.354 57.9599 25.96L67.9199 16L57.9599 6.04C57.57 5.64958 57.57 5.01709 57.9599 4.62667C58.1465 4.43782 58.4012 4.33208 58.6666 4.33333Z" fill="black"/>
</svg>
