<svg width="273" height="32" viewBox="0 0 273 32" fill="none" xmlns="http://www.w3.org/2000/svg">
<path d="M15 22L9 16L15 10" stroke="black"/>
<rect x="40" width="32" height="32" rx="5" fill="black"/>
<path d="M57.7528 10.3636V22H55.9915V12.125H55.9233L53.1392 13.9432V12.2614L56.0426 10.3636H57.7528Z" fill="white"/>
<rect x="80" width="32" height="32" rx="5" fill="#F6F6F6"/>
<path d="M92.2131 22V20.7273L96.1506 16.6477C96.571 16.2045 96.9176 15.8163 97.1903 15.483C97.4669 15.1458 97.6733 14.8258 97.8097 14.5227C97.946 14.2197 98.0142 13.8977 98.0142 13.5568C98.0142 13.1705 97.9233 12.8371 97.7415 12.5568C97.5597 12.2727 97.3116 12.0549 96.9972 11.9034C96.6828 11.7481 96.3286 11.6705 95.9347 11.6705C95.518 11.6705 95.1544 11.7557 94.8438 11.9261C94.5331 12.0966 94.2945 12.3371 94.1278 12.6477C93.9612 12.9583 93.8778 13.322 93.8778 13.7386H92.2017C92.2017 13.0303 92.3646 12.411 92.6903 11.8807C93.0161 11.3504 93.4631 10.9394 94.0312 10.6477C94.5994 10.3523 95.2453 10.2045 95.9688 10.2045C96.6998 10.2045 97.3438 10.3504 97.9006 10.642C98.4612 10.9299 98.8987 11.3239 99.2131 11.8239C99.5275 12.3201 99.6847 12.8807 99.6847 13.5057C99.6847 13.9375 99.6032 14.3598 99.4403 14.7727C99.2813 15.1856 99.0028 15.6458 98.6051 16.1534C98.2074 16.6572 97.6544 17.2689 96.946 17.9886L94.6335 20.4091V20.4943H99.8722V22H92.2131Z" fill="black"/>
<rect x="120" width="33" height="32" rx="5" fill="#F6F6F6"/>
<path d="M136.514 22.1591C135.734 22.1591 135.037 22.0246 134.423 21.7557C133.813 21.4867 133.33 21.1136 132.974 20.6364C132.622 20.1553 132.433 19.5985 132.406 18.9659H134.19C134.213 19.3106 134.329 19.6098 134.537 19.8636C134.749 20.1136 135.026 20.3068 135.366 20.4432C135.707 20.5795 136.086 20.6477 136.503 20.6477C136.961 20.6477 137.366 20.5682 137.719 20.4091C138.075 20.25 138.353 20.0284 138.554 19.7443C138.755 19.4564 138.855 19.125 138.855 18.75C138.855 18.3598 138.755 18.017 138.554 17.7216C138.357 17.4223 138.067 17.1875 137.685 17.017C137.306 16.8466 136.848 16.7614 136.31 16.7614H135.327V15.3295H136.31C136.741 15.3295 137.12 15.2519 137.446 15.0966C137.776 14.9413 138.033 14.7254 138.219 14.4489C138.404 14.1686 138.497 13.8409 138.497 13.4659C138.497 13.1061 138.416 12.7936 138.253 12.5284C138.094 12.2595 137.866 12.0492 137.571 11.8977C137.279 11.7462 136.935 11.6705 136.537 11.6705C136.158 11.6705 135.804 11.7405 135.474 11.8807C135.149 12.017 134.884 12.214 134.679 12.4716C134.474 12.7254 134.365 13.0303 134.349 13.3864H132.651C132.67 12.7576 132.855 12.2045 133.207 11.7273C133.563 11.25 134.033 10.8769 134.616 10.608C135.2 10.339 135.848 10.2045 136.56 10.2045C137.306 10.2045 137.95 10.3504 138.491 10.642C139.037 10.9299 139.457 11.3144 139.753 11.7955C140.052 12.2765 140.2 12.803 140.196 13.375C140.2 14.0265 140.018 14.5795 139.651 15.0341C139.287 15.4886 138.802 15.7936 138.196 15.9489V16.0398C138.969 16.1572 139.567 16.464 139.991 16.9602C140.42 17.4564 140.632 18.072 140.628 18.8068C140.632 19.447 140.454 20.0208 140.094 20.5284C139.738 21.036 139.251 21.4356 138.634 21.7273C138.016 22.0152 137.31 22.1591 136.514 22.1591Z" fill="black"/>
<circle cx="162.5" cy="27.5" r="1.5" fill="#737373"/>
<circle cx="169.5" cy="27.5" r="1.5" fill="#737373"/>
<circle cx="176.5" cy="27.5" r="1.5" fill="#737373"/>
<circle cx="183.5" cy="27.5" r="1.5" fill="#737373"/>
<rect x="193" width="40" height="32" rx="5" fill="#F6F6F6"/>
<path d="M209.607 10.3636V22H207.845V12.125H207.777L204.993 13.9432V12.2614L207.896 10.3636H209.607ZM213.234 22V20.7273L217.172 16.6477C217.592 16.2045 217.939 15.8163 218.212 15.483C218.488 15.1458 218.695 14.8258 218.831 14.5227C218.967 14.2197 219.035 13.8977 219.035 13.5568C219.035 13.1705 218.945 12.8371 218.763 12.5568C218.581 12.2727 218.333 12.0549 218.018 11.9034C217.704 11.7481 217.35 11.6705 216.956 11.6705C216.539 11.6705 216.176 11.7557 215.865 11.9261C215.554 12.0966 215.316 12.3371 215.149 12.6477C214.982 12.9583 214.899 13.322 214.899 13.7386H213.223C213.223 13.0303 213.386 12.411 213.712 11.8807C214.037 11.3504 214.484 10.9394 215.052 10.6477C215.621 10.3523 216.267 10.2045 216.99 10.2045C217.721 10.2045 218.365 10.3504 218.922 10.642C219.482 10.9299 219.92 11.3239 220.234 11.8239C220.549 12.3201 220.706 12.8807 220.706 13.5057C220.706 13.9375 220.624 14.3598 220.462 14.7727C220.303 15.1856 220.024 15.6458 219.626 16.1534C219.229 16.6572 218.676 17.2689 217.967 17.9886L215.655 20.4091V20.4943H220.893V22H213.234Z" fill="black"/>
<path d="M258 10L264 16L258 22" stroke="black"/>
</svg>
